Coordinates
version=1
nRows=6
nColumns=63
inDegrees=yes

Units are S.I. units (second, meters, Newtons, ...)
If the header above contains a line with 'inDegrees', this indicates whether rotational values are in degrees (yes) or radians (no).

endheader
time	pelvis_tilt	pelvis_list	pelvis_rotation	pelvis_tx	pelvis_ty	pelvis_tz	hip_flexion_r	hip_adduction_r	hip_rotation_r	knee_angle_r	knee_angle_r_beta	ankle_angle_r	subtalar_angle_r	mtp_angle_r	hip_flexion_l	hip_adduction_l	hip_rotation_l	knee_angle_l	knee_angle_l_beta	ankle_angle_l	subtalar_angle_l	mtp_angle_l	L5_S1_Flex_Ext	L5_S1_Lat_Bending	L5_S1_axial_rotation	L4_L5_Flex_Ext	L4_L5_Lat_Bending	L4_L5_axial_rotation	L3_L4_Flex_Ext	L3_L4_Lat_Bending	L3_L4_axial_rotation	L2_L3_Flex_Ext	L2_L3_Lat_Bending	L2_L3_axial_rotation	L1_L2_Flex_Ext	L1_L2_Lat_Bending	L1_L2_axial_rotation	L1_T12_Flex_Ext	L1_T12_Lat_Bending	L1_T12_axial_rotation	Abs_r3	Abs_r2	Abs_r1	Abs_t1	Abs_t2	neck_flexion	neck_bending	neck_rotation	arm_flex_r	arm_add_r	arm_rot_r	elbow_flex_r	pro_sup_r	wrist_flex_r	wrist_dev_r	arm_flex_l	arm_add_l	arm_rot_l	elbow_flex_l	pro_sup_l	wrist_flex_l	wrist_dev_l
3.714286	1.292293	-3.325761	103.447277	0.248961	0.742994	0.875253	-0.759757	1.554165	-21.006596	8.849378	0.154451	30.981443	18.650770	0.000000	-1.810748	-0.487495	18.228801	1.687283	0.029449	26.428003	-14.740369	0.000000	-0.283180	0.467144	-0.782616	-0.525893	0.621301	-0.831529	-0.465236	1.135813	-0.831529	-0.323646	1.135813	-0.684789	-0.262961	0.952599	-0.635875	-0.161809	0.723605	-0.586962	-2.022725	5.284422	-4.352674	0.000000	0.000000	25.970632	-4.591966	0.180440	12.001715	-8.937176	135.272534	11.405517	3.247206	-3.107006	-3.174986	5.380766	-4.524443	126.356794	6.609736	3.035748	-6.511620	-9.060160
3.732143	1.248125	-3.672140	103.477697	0.249066	0.742811	0.876129	-0.421962	1.478430	-20.555561	8.671764	0.151351	30.771666	18.058018	0.000000	-1.389654	-0.350594	17.988152	1.798412	0.031388	26.194990	-14.744496	0.000000	-0.252236	0.453266	-0.832384	-0.468428	0.602844	-0.884408	-0.414399	1.102071	-0.884408	-0.288281	1.102071	-0.728336	-0.234227	0.924300	-0.676312	-0.144128	0.702109	-0.624288	-1.801700	5.127436	-4.629471	0.000000	0.000000	26.173637	-4.550139	0.144192	12.424724	-8.887464	137.232088	11.217809	3.268032	-3.284946	-3.978124	5.207532	-4.798170	126.141118	6.614227	3.064979	-6.412283	-9.030888
3.750000	1.206117	-3.968804	103.445439	0.249159	0.742487	0.876714	-0.218154	1.459336	-19.480877	8.325330	0.145304	30.404960	16.760198	0.000000	-1.059345	-0.228257	17.720129	1.888870	0.032967	25.989837	-14.789501	0.000000	-0.224660	0.441428	-0.871207	-0.417216	0.587100	-0.925658	-0.369093	1.073289	-0.925658	-0.256764	1.073289	-0.762306	-0.208619	0.900161	-0.707856	-0.128371	0.683773	-0.653406	-1.604722	4.993527	-4.845394	0.000000	0.000000	26.350610	-4.464792	0.189413	12.786154	-8.916685	139.039806	11.081788	3.277728	-3.513527	-4.730449	4.981381	-5.138937	125.866785	6.685418	3.090998	-6.332262	-8.897746
3.767857	1.178471	-4.228863	103.278421	0.249280	0.742053	0.877216	0.061898	1.391233	-19.247066	8.239326	0.143803	30.365038	16.701358	0.000000	-0.799507	-0.115461	17.379928	1.949661	0.034028	25.814584	-14.875397	0.000000	-0.202147	0.433833	-0.886773	-0.375407	0.576999	-0.942197	-0.332107	1.054823	-0.942197	-0.231034	1.054823	-0.775927	-0.187714	0.884673	-0.720503	-0.115507	0.672008	-0.665080	-1.443916	4.907611	-4.931968	0.000000	0.000000	26.533638	-4.366307	0.328993	13.100968	-9.035419	140.547397	11.014984	3.248348	-3.762648	-5.400144	4.713908	-5.522294	125.144530	6.875516	3.135730	-6.250927	-8.684823
3.785714	1.161810	-4.436742	103.021553	0.249355	0.741564	0.877490	0.290269	1.336758	-18.920517	8.168781	0.142572	30.334117	16.634692	0.000000	-0.628093	-0.016461	17.001787	1.983851	0.034625	25.677569	-15.005345	0.000000	-0.183643	0.430498	-0.883182	-0.341043	0.572562	-0.938381	-0.301707	1.046713	-0.938381	-0.209885	1.046713	-0.772784	-0.170531	0.877871	-0.717585	-0.104933	0.666841	-0.662386	-1.311742	4.869879	-4.911992	0.000000	0.000000	26.697859	-4.283056	0.511845	13.316072	-9.222712	141.698250	10.993958	3.200241	-4.048902	-6.003506	4.431908	-5.907796	124.204019	7.141117	3.196425	-6.140292	-8.349263
3.803571	1.166087	-4.569941	102.706361	0.249343	0.741096	0.877531	0.430316	1.315159	-18.522306	8.081375	0.141047	30.300930	16.562583	0.000000	-0.568476	0.049530	16.629503	1.975796	0.034484	25.583035	-15.165787	0.000000	-0.171937	0.433638	-0.869592	-0.319305	0.576738	-0.923942	-0.282476	1.054347	-0.923942	-0.196507	1.054347	-0.760893	-0.159661	0.884274	-0.706544	-0.098245	0.671705	-0.652194	-1.228132	4.905399	-4.836410	0.000000	0.000000	26.821139	-4.173317	0.823263	13.435118	-9.473620	142.367210	11.031406	3.111690	-4.375947	-6.488745	4.152132	-6.268090	122.924309	7.495966	3.240551	-6.024023	-7.927691
